<?xml version="1.0" encoding="UTF-8"?>
<!DOCTYPE svg PUBLIC "-//W3C//DTD SVG 1.1//EN" "http://www.w3.org/Graphics/SVG/1.1/DTD/svg11.dtd">
<svg xmlns="http://www.w3.org/2000/svg" version="1.1" width="500px" height="500px" style="shape-rendering:geometricPrecision; text-rendering:geometricPrecision; image-rendering:optimizeQuality; fill-rule:evenodd; clip-rule:evenodd" xmlns:xlink="http://www.w3.org/1999/xlink">
<g><path style="opacity:0.777" fill="#cc5e39" d="M 265.5,106.5 C 267.167,107.167 268.833,107.833 270.5,108.5C 258.854,107.667 247.187,107.334 235.5,107.5C 235.5,107.167 235.5,106.833 235.5,106.5C 245.628,105.205 255.628,105.205 265.5,106.5 Z"/></g>
<g><path style="opacity:0.388" fill="#d07754" d="M 235.5,106.5 C 235.5,106.833 235.5,107.167 235.5,107.5C 229.541,108.489 223.541,109.156 217.5,109.5C 223.134,107.062 229.134,106.062 235.5,106.5 Z"/></g>
<g><path style="opacity:0.271" fill="#d58463" d="M 265.5,106.5 C 268.85,106.335 272.183,106.502 275.5,107C 282.916,108.237 289.916,110.404 296.5,113.5C 287.697,112.072 279.031,110.405 270.5,108.5C 268.833,107.833 267.167,107.167 265.5,106.5 Z"/></g>
<g><path style="opacity:1" fill="#fc5010" d="M 303.5,118.5 C 305.23,119.026 306.564,120.026 307.5,121.5C 312.756,125.021 318.089,128.355 323.5,131.5C 322.862,133.46 322.862,135.293 323.5,137C 324.332,137.688 324.998,137.521 325.5,136.5C 324.359,135.575 324.359,134.741 325.5,134C 326.899,133.405 328.232,133.572 329.5,134.5C 331.934,140.904 336.601,144.737 343.5,146C 346.305,148.687 345.971,149.687 342.5,149C 341.108,145.619 338.775,144.786 335.5,146.5C 337.5,148.5 339.5,150.5 341.5,152.5C 338.979,154.26 338.146,156.593 339,159.5C 342.03,156.64 344.697,156.973 347,160.5C 348.314,159.687 349.481,158.687 350.5,157.5C 351.318,160.107 351.818,162.774 352,165.5C 352.9,163.602 354.066,161.936 355.5,160.5C 355.833,161.167 356.167,161.833 356.5,162.5C 355.506,164.83 354.506,167.163 353.5,169.5C 353.766,171.66 354.766,173.326 356.5,174.5C 354.973,175.944 353.306,176.778 351.5,177C 351.645,177.772 351.978,178.439 352.5,179C 354.81,179.497 357.143,179.663 359.5,179.5C 360.639,182.004 361.306,184.67 361.5,187.5C 363.722,187.822 365.556,187.155 367,185.5C 367.309,186.766 367.809,187.933 368.5,189C 367.567,192.259 367.567,195.759 368.5,199.5C 369.314,197.234 369.814,194.9 370,192.5C 372.534,194.569 373.701,197.235 373.5,200.5C 374.675,200.281 375.675,200.614 376.5,201.5C 377.857,203.565 379.19,205.565 380.5,207.5C 380.5,210.167 380.5,212.833 380.5,215.5C 380.271,217.433 379.438,219.1 378,220.5C 377.107,225.003 377.607,229.336 379.5,233.5C 378.037,235.946 378.204,238.28 380,240.5C 380.414,240.043 380.914,239.709 381.5,239.5C 382.466,241.396 382.799,243.396 382.5,245.5C 379.795,245.38 379.128,246.38 380.5,248.5C 379.913,252.445 378.913,256.278 377.5,260C 378.923,261.412 378.756,262.579 377,263.5C 376.667,262.833 376.333,262.167 376,261.5C 375.788,264.332 375.621,266.998 375.5,269.5C 375.846,270.696 376.346,270.696 377,269.5C 377.782,275.712 376.948,281.712 374.5,287.5C 373.054,286.829 372.388,285.662 372.5,284C 373.92,279.674 373.753,275.508 372,271.5C 372.138,276.877 370.971,281.877 368.5,286.5C 369.167,287.167 369.833,287.833 370.5,288.5C 369.726,289.711 368.893,289.711 368,288.5C 367.86,291.043 367.194,293.377 366,295.5C 365.667,294.833 365.333,294.167 365,293.5C 363.892,297.027 361.725,298.36 358.5,297.5C 357.548,299.045 357.215,300.712 357.5,302.5C 358.5,302.5 359.5,302.5 360.5,302.5C 361.077,305.55 359.91,307.55 357,308.5C 355.256,307.351 355.089,306.017 356.5,304.5C 352.754,303.135 351.254,304.469 352,308.5C 355.018,309.761 354.852,311.095 351.5,312.5C 350.195,315.817 350.528,318.984 352.5,322C 349.42,326.917 346.92,332.083 345,337.5C 344.667,337.167 344.333,336.833 344,336.5C 343.221,337.728 342.221,338.728 341,339.5C 339.346,338.347 337.846,337.013 336.5,335.5C 334.183,337.737 334.017,340.07 336,342.5C 337.813,340.528 338.98,340.528 339.5,342.5C 338.714,344.041 337.714,345.374 336.5,346.5C 335.766,347.708 335.433,349.041 335.5,350.5C 334.167,350.5 332.833,350.5 331.5,350.5C 331.657,351.873 331.49,353.207 331,354.5C 329.583,355.078 328.75,356.078 328.5,357.5C 325.975,358.64 323.308,359.307 320.5,359.5C 320.567,360.959 320.234,362.292 319.5,363.5C 317.167,363.5 314.833,363.5 312.5,363.5C 312.5,364.5 312.5,365.5 312.5,366.5C 311.167,366.5 309.833,366.5 308.5,366.5C 307.305,366.678 306.138,367.011 305,367.5C 302.232,365.94 299.398,364.607 296.5,363.5C 294.893,363.637 293.559,364.304 292.5,365.5C 295.167,366.833 297.833,368.167 300.5,369.5C 298.711,370.877 296.711,371.877 294.5,372.5C 293.614,371.675 293.281,370.675 293.5,369.5C 291.5,369.5 289.5,369.5 287.5,369.5C 287.5,370.5 287.5,371.5 287.5,372.5C 284.367,373.011 281.2,373.344 278,373.5C 264.803,371.963 251.47,370.963 238,370.5C 234.669,372.018 231.669,373.351 229,374.5C 228.519,372.522 227.353,371.189 225.5,370.5C 220.316,372.648 214.983,373.315 209.5,372.5C 209.5,371.5 209.5,370.5 209.5,369.5C 212.722,369.892 215.722,369.392 218.5,368C 214.848,367.501 211.182,367.335 207.5,367.5C 207.688,365.897 207.188,364.563 206,363.5C 203.959,364.752 201.625,365.419 199,365.5C 195.027,365.567 191.194,364.901 187.5,363.5C 188.641,362.575 188.641,361.741 187.5,361C 191.069,360.153 192.402,358.153 191.5,355C 189.765,354.349 188.098,354.515 186.5,355.5C 183.378,352.177 179.712,351.51 175.5,353.5C 175.5,352.167 175.5,350.833 175.5,349.5C 173.5,349.833 171.5,350.167 169.5,350.5C 169.662,348.473 169.495,346.473 169,344.5C 166.723,342.887 165.223,340.72 164.5,338C 158.309,338.924 158.142,340.757 164,343.5C 164.333,343.167 164.667,342.833 165,342.5C 165.827,343.662 166.66,344.829 167.5,346C 167.355,346.772 167.022,347.439 166.5,348C 162.387,347.229 158.72,345.396 155.5,342.5C 154.833,342.5 154.167,342.5 153.5,342.5C 151.574,339.061 149.407,335.728 147,332.5C 145.989,331.663 144.822,331.33 143.5,331.5C 141.453,329.45 139.786,327.117 138.5,324.5C 137.677,321.539 137.01,318.539 136.5,315.5C 135.325,315.719 134.325,315.386 133.5,314.5C 132.517,310.367 130.85,306.534 128.5,303C 128.645,302.228 128.978,301.561 129.5,301C 128.468,299.373 127.134,298.207 125.5,297.5C 123.67,288.675 121.336,280.008 118.5,271.5C 119.982,266.437 119.649,261.603 117.5,257C 120.919,250.576 120.919,244.242 117.5,238C 118.292,229.202 118.792,220.368 119,211.5C 120.882,207.047 122.215,202.381 123,197.5C 127.903,192.979 130.403,187.312 130.5,180.5C 139.211,162.265 152.211,147.431 169.5,136C 170.257,134.488 171.257,133.154 172.5,132C 175.451,131.904 178.118,131.071 180.5,129.5C 181.458,127.216 182.792,125.216 184.5,123.5C 189.738,122.457 194.738,120.623 199.5,118C 203.894,117.697 208.227,117.03 212.5,116C 217.972,112.458 223.972,110.125 230.5,109C 238.827,108.5 247.16,108.334 255.5,108.5C 255.5,109.5 255.5,110.5 255.5,111.5C 264.139,108.787 272.472,109.62 280.5,114C 288.344,114.861 296.011,116.361 303.5,118.5 Z M 251.5,150.5 C 256.167,157.167 260.833,163.833 265.5,170.5C 267.088,174.41 269.421,177.743 272.5,180.5C 272.987,181.473 273.487,182.473 274,183.5C 274.5,197.829 274.667,212.163 274.5,226.5C 274.5,250.833 274.5,275.167 274.5,299.5C 267.82,299.388 261.153,299.054 254.5,298.5C 253.791,297.596 252.791,297.263 251.5,297.5C 252.302,248.512 252.302,199.512 251.5,150.5 Z M 299.5,210.5 C 302.906,213.899 305.906,217.565 308.5,221.5C 309.248,223.332 310.248,224.999 311.5,226.5C 313.113,229.286 314.946,231.953 317,234.5C 317.5,248.163 317.667,261.829 317.5,275.5C 317.5,284.167 317.5,292.833 317.5,301.5C 315.5,301.5 313.5,301.5 311.5,301.5C 307.6,300.57 303.6,300.237 299.5,300.5C 299.5,270.5 299.5,240.5 299.5,210.5 Z"/></g>
<g><path style="opacity:1" fill="#eb541d" d="M 235.5,107.5 C 247.187,107.334 258.854,107.667 270.5,108.5C 279.031,110.405 287.697,112.072 296.5,113.5C 296.833,113.5 297.167,113.5 297.5,113.5C 299.082,115.374 301.082,116.707 303.5,117.5C 303.5,117.833 303.5,118.167 303.5,118.5C 296.011,116.361 288.344,114.861 280.5,114C 272.472,109.62 264.139,108.787 255.5,111.5C 255.5,110.5 255.5,109.5 255.5,108.5C 247.16,108.334 238.827,108.5 230.5,109C 223.972,110.125 217.972,112.458 212.5,116C 208.227,117.03 203.894,117.697 199.5,118C 194.738,120.623 189.738,122.457 184.5,123.5C 189.087,121.306 193.754,118.973 198.5,116.5C 205.497,115.506 211.831,113.173 217.5,109.5C 223.541,109.156 229.541,108.489 235.5,107.5 Z"/></g>
<g><path style="opacity:0.859" fill="#d6683a" d="M 217.5,109.5 C 211.831,113.173 205.497,115.506 198.5,116.5C 202.044,115.211 205.377,113.544 208.5,111.5C 211.219,110.087 214.219,109.42 217.5,109.5 Z"/></g>
<g><path style="opacity:0.235" fill="#df8d6f" d="M 208.5,111.5 C 205.377,113.544 202.044,115.211 198.5,116.5C 193.754,118.973 189.087,121.306 184.5,123.5C 183.167,123.833 181.833,124.167 180.5,124.5C 188.951,118.612 198.284,114.279 208.5,111.5 Z"/></g>
<g><path style="opacity:0.106" fill="#e2987c" d="M 297.5,113.5 C 302.961,115.067 307.961,117.4 312.5,120.5C 309.406,119.787 306.406,118.787 303.5,117.5C 301.082,116.707 299.082,115.374 297.5,113.5 Z"/></g>
<g><path style="opacity:0.784" fill="#d65c32" d="M 303.5,118.5 C 303.5,118.167 303.5,117.833 303.5,117.5C 306.406,118.787 309.406,119.787 312.5,120.5C 314.181,122.008 316.181,123.008 318.5,123.5C 319.6,124.605 320.267,125.938 320.5,127.5C 316.28,125.223 311.947,123.223 307.5,121.5C 306.564,120.026 305.23,119.026 303.5,118.5 Z"/></g>
<g><path style="opacity:0.043" fill="#e6a890" d="M 312.5,120.5 C 315.089,120.461 317.089,121.461 318.5,123.5C 316.181,123.008 314.181,122.008 312.5,120.5 Z"/></g>
<g><path style="opacity:0.145" fill="#dd896a" d="M 180.5,124.5 C 179.952,127.084 178.285,128.084 175.5,127.5C 176.659,125.75 178.326,124.75 180.5,124.5 Z"/></g>
<g><path style="opacity:0.463" fill="#e18e72" d="M 318.5,123.5 C 327.65,128.064 335.65,134.064 342.5,141.5C 336.537,137.84 330.87,133.674 325.5,129C 323.975,127.991 322.308,127.491 320.5,127.5C 320.267,125.938 319.6,124.605 318.5,123.5 Z"/></g>
<g><path style="opacity:0.137" fill="#e79579" d="M 175.5,127.5 C 175.586,128.496 175.252,129.329 174.5,130C 171.279,132.057 167.946,133.891 164.5,135.5C 166.379,132.885 168.712,130.719 171.5,129C 172.745,128.209 174.078,127.709 175.5,127.5 Z"/></g>
<g><path style="opacity:0.102" fill="#f5c7b6" d="M 344.5,142.5 C 345.906,142.973 346.573,143.973 346.5,145.5C 345.094,145.027 344.427,144.027 344.5,142.5 Z"/></g>
<g><path style="opacity:0.98" fill="#df5d30" d="M 184.5,123.5 C 182.792,125.216 181.458,127.216 180.5,129.5C 178.118,131.071 175.451,131.904 172.5,132C 171.257,133.154 170.257,134.488 169.5,136C 152.211,147.431 139.211,162.265 130.5,180.5C 131.57,175.961 133.236,171.628 135.5,167.5C 137.17,164.825 138.836,162.159 140.5,159.5C 148.785,151.881 156.785,143.881 164.5,135.5C 167.946,133.891 171.279,132.057 174.5,130C 175.252,129.329 175.586,128.496 175.5,127.5C 178.285,128.084 179.952,127.084 180.5,124.5C 181.833,124.167 183.167,123.833 184.5,123.5 Z"/></g>
<g><path style="opacity:0.098" fill="#f1c4b5" d="M 347.5,145.5 C 348.906,145.973 349.573,146.973 349.5,148.5C 348.833,148.167 348.167,147.833 347.5,147.5C 347.5,146.833 347.5,146.167 347.5,145.5 Z"/></g>
<g><path style="opacity:0.345" fill="#e59a7e" d="M 164.5,135.5 C 156.785,143.881 148.785,151.881 140.5,159.5C 146.855,149.812 154.855,141.812 164.5,135.5 Z"/></g>
<g><path style="opacity:1" fill="#65332b" d="M 250.5,148.5 C 250.5,148.833 250.5,149.167 250.5,149.5C 249.325,149.281 248.325,149.614 247.5,150.5C 246.965,152.261 245.965,153.594 244.5,154.5C 244.946,151.268 246.613,148.935 249.5,147.5C 250.107,147.624 250.44,147.957 250.5,148.5 Z"/></g>
<g><path style="opacity:0.263" fill="#da8465" d="M 347.5,147.5 C 348.167,147.833 348.833,148.167 349.5,148.5C 352.543,150.543 354.876,153.21 356.5,156.5C 352.451,154.451 349.451,151.451 347.5,147.5 Z"/></g>
<g><path style="opacity:1" fill="#c0512f" d="M 253.5,149.5 C 252.391,149.443 251.391,149.11 250.5,148.5C 250.44,147.957 250.107,147.624 249.5,147.5C 246.613,148.935 244.946,151.268 244.5,154.5C 242.167,157.167 239.833,159.833 237.5,162.5C 238.022,159.747 238.856,157.08 240,154.5C 243.029,152.971 245.195,150.638 246.5,147.5C 249.558,145.846 251.892,146.513 253.5,149.5 Z"/></g>
<g><path style="opacity:0.298" fill="#db8a6d" d="M 356.5,156.5 C 358.587,157.585 359.92,159.251 360.5,161.5C 358.413,160.415 357.08,158.749 356.5,156.5 Z"/></g>
<g><path style="opacity:1" fill="#233c54" d="M 250.5,149.5 C 250.5,149.833 250.5,150.167 250.5,150.5C 250.5,199.833 250.5,249.167 250.5,298.5C 251.833,298.5 253.167,298.5 254.5,298.5C 261.153,299.054 267.82,299.388 274.5,299.5C 274.5,275.167 274.5,250.833 274.5,226.5C 275.738,227.412 277.072,227.579 278.5,227C 282.159,222.869 285.492,218.702 288.5,214.5C 289.833,213.833 291.167,213.167 292.5,212.5C 295.525,214.036 297.192,216.536 297.5,220C 296.698,246.485 296.198,272.985 296,299.5C 295.727,301.101 295.227,302.601 294.5,304C 292.1,304.186 289.766,304.686 287.5,305.5C 275,305.833 262.5,306.167 250,306.5C 231.61,306.009 213.776,306.009 196.5,306.5C 195.737,305.732 194.737,305.232 193.5,305C 195.889,303.904 198.389,303.071 201,302.5C 213.118,303.105 225.452,303.771 238,304.5C 245.587,303.983 253.087,303.15 260.5,302C 256.447,300.927 252.447,300.593 248.5,301C 252.386,300.421 252.386,299.588 248.5,298.5C 247.779,296.314 247.113,294.147 246.5,292C 247.574,291.261 248.241,290.261 248.5,289C 247.727,282.871 247.227,276.704 247,270.5C 244.638,261.498 242.138,252.498 239.5,243.5C 239.529,241.971 240.196,240.804 241.5,240C 239.901,238.214 239.067,236.047 239,233.5C 237.69,236.127 236.023,238.46 234,240.5C 232.491,239.91 230.991,239.244 229.5,238.5C 234.556,232.493 237.223,225.493 237.5,217.5C 237.561,214.519 236.728,211.852 235,209.5C 234.667,210.167 234.333,210.833 234,211.5C 233.997,217.619 232.83,223.452 230.5,229C 231.711,229.893 231.711,230.726 230.5,231.5C 229.354,230.855 228.354,230.022 227.5,229C 228.667,227.167 229.833,225.333 231,223.5C 231.82,212.257 231.653,201.09 230.5,190C 231,189.833 231.5,189.667 232,189.5C 233.368,190.703 234.868,191.703 236.5,192.5C 237.422,188.924 237.089,185.424 235.5,182C 236.621,176.942 237.954,171.942 239.5,167C 237.6,167.213 235.933,168.047 234.5,169.5C 235.227,167.046 236.227,164.713 237.5,162.5C 239.833,159.833 242.167,157.167 244.5,154.5C 245.965,153.594 246.965,152.261 247.5,150.5C 248.325,149.614 249.325,149.281 250.5,149.5 Z"/></g>
<g><path style="opacity:0.314" fill="#db8c6a" d="M 250.5,148.5 C 251.391,149.11 252.391,149.443 253.5,149.5C 254.075,151.411 255.075,153.078 256.5,154.5C 260.539,159.245 263.539,164.578 265.5,170.5C 260.833,163.833 256.167,157.167 251.5,150.5C 251.167,150.5 250.833,150.5 250.5,150.5C 250.5,150.167 250.5,149.833 250.5,149.5C 250.5,149.167 250.5,148.833 250.5,148.5 Z"/></g>
<g><path style="opacity:0.851" fill="#df7d5b" d="M 360.5,161.5 C 365.746,166.981 369.746,173.314 372.5,180.5C 371.265,180.279 370.265,179.612 369.5,178.5C 367.168,173.834 364.334,169.501 361,165.5C 360.51,164.207 360.343,162.873 360.5,161.5 Z"/></g>
<g><path style="opacity:1" fill="#e65722" d="M 256.5,154.5 C 258.09,154.628 259.423,155.295 260.5,156.5C 262.644,160.471 264.977,164.304 267.5,168C 269.113,168.089 270.28,167.255 271,165.5C 271.24,169.252 271.74,172.919 272.5,176.5C 269.738,174.945 267.404,172.945 265.5,170.5C 263.539,164.578 260.539,159.245 256.5,154.5 Z"/></g>
<g><path style="opacity:1" fill="#d55c36" d="M 235.5,163.5 C 233.162,167.816 230.495,171.816 227.5,175.5C 227.491,173.692 227.991,172.025 229,170.5C 231.199,168.019 233.366,165.686 235.5,163.5 Z"/></g>
<g><path style="opacity:0.325" fill="#df8f74" d="M 265.5,170.5 C 267.404,172.945 269.738,174.945 272.5,176.5C 272.5,177.833 272.5,179.167 272.5,180.5C 269.421,177.743 267.088,174.41 265.5,170.5 Z"/></g>
<g><path style="opacity:1" fill="#f55315" d="M 307.5,121.5 C 311.947,123.223 316.28,125.223 320.5,127.5C 322.308,127.491 323.975,127.991 325.5,129C 330.87,133.674 336.537,137.84 342.5,141.5C 343.167,141.833 343.833,142.167 344.5,142.5C 344.427,144.027 345.094,145.027 346.5,145.5C 346.833,145.5 347.167,145.5 347.5,145.5C 347.5,146.167 347.5,146.833 347.5,147.5C 349.451,151.451 352.451,154.451 356.5,156.5C 357.08,158.749 358.413,160.415 360.5,161.5C 360.343,162.873 360.51,164.207 361,165.5C 364.334,169.501 367.168,173.834 369.5,178.5C 370.265,179.612 371.265,180.279 372.5,180.5C 374.109,187.044 376.775,193.044 380.5,198.5C 380.5,201.5 380.5,204.5 380.5,207.5C 379.19,205.565 377.857,203.565 376.5,201.5C 375.675,200.614 374.675,200.281 373.5,200.5C 373.701,197.235 372.534,194.569 370,192.5C 369.814,194.9 369.314,197.234 368.5,199.5C 367.567,195.759 367.567,192.259 368.5,189C 367.809,187.933 367.309,186.766 367,185.5C 365.556,187.155 363.722,187.822 361.5,187.5C 361.306,184.67 360.639,182.004 359.5,179.5C 357.143,179.663 354.81,179.497 352.5,179C 351.978,178.439 351.645,177.772 351.5,177C 353.306,176.778 354.973,175.944 356.5,174.5C 354.766,173.326 353.766,171.66 353.5,169.5C 354.506,167.163 355.506,164.83 356.5,162.5C 356.167,161.833 355.833,161.167 355.5,160.5C 354.066,161.936 352.9,163.602 352,165.5C 351.818,162.774 351.318,160.107 350.5,157.5C 349.481,158.687 348.314,159.687 347,160.5C 344.697,156.973 342.03,156.64 339,159.5C 338.146,156.593 338.979,154.26 341.5,152.5C 339.5,150.5 337.5,148.5 335.5,146.5C 338.775,144.786 341.108,145.619 342.5,149C 345.971,149.687 346.305,148.687 343.5,146C 336.601,144.737 331.934,140.904 329.5,134.5C 328.232,133.572 326.899,133.405 325.5,134C 324.359,134.741 324.359,135.575 325.5,136.5C 324.998,137.521 324.332,137.688 323.5,137C 322.862,135.293 322.862,133.46 323.5,131.5C 318.089,128.355 312.756,125.021 307.5,121.5 Z"/></g>
<g><path style="opacity:0.525" fill="#dd8665" d="M 135.5,167.5 C 133.236,171.628 131.57,175.961 130.5,180.5C 126.977,186.409 123.644,192.409 120.5,198.5C 123.647,187.207 128.647,176.873 135.5,167.5 Z"/></g>
<g><path style="opacity:1" fill="#844737" d="M 237.5,162.5 C 236.227,164.713 235.227,167.046 234.5,169.5C 232.273,170.401 231.273,172.067 231.5,174.5C 228.833,177.167 226.167,179.833 223.5,182.5C 224.806,180.184 226.139,177.85 227.5,175.5C 230.495,171.816 233.162,167.816 235.5,163.5C 235.842,162.662 236.508,162.328 237.5,162.5 Z"/></g>
<g><path style="opacity:0.482" fill="#df8a6e" d="M 372.5,180.5 C 376.227,185.96 378.893,191.96 380.5,198.5C 376.775,193.044 374.109,187.044 372.5,180.5 Z"/></g>
<g><path style="opacity:0.518" fill="#c26843" d="M 272.5,180.5 C 274.017,180.511 275.184,181.177 276,182.5C 276.5,196.496 276.667,210.496 276.5,224.5C 277.5,224.5 278.5,224.5 279.5,224.5C 279.343,223.127 279.51,221.793 280,220.5C 282.758,218.249 284.925,215.582 286.5,212.5C 287.885,210.117 289.885,208.45 292.5,207.5C 290.739,209.593 289.406,211.926 288.5,214.5C 285.492,218.702 282.159,222.869 278.5,227C 277.072,227.579 275.738,227.412 274.5,226.5C 274.667,212.163 274.5,197.829 274,183.5C 273.487,182.473 272.987,181.473 272.5,180.5 Z"/></g>
<g><path style="opacity:1" fill="#442e37" d="M 231.5,174.5 C 229.842,177.794 227.676,180.794 225,183.5C 224.831,197.673 224.331,211.673 223.5,225.5C 223.5,211.5 223.5,197.5 223.5,183.5C 223.5,183.167 223.5,182.833 223.5,182.5C 226.167,179.833 228.833,177.167 231.5,174.5 Z"/></g>
<g><path style="opacity:0.784" fill="#d07855" d="M 380.5,198.5 C 382.985,204.516 384.652,210.849 385.5,217.5C 384.24,214 382.574,210.667 380.5,207.5C 380.5,204.5 380.5,201.5 380.5,198.5 Z"/></g>
<g><path style="opacity:0.278" fill="#d7805c" d="M 120.5,198.5 C 121.12,202.302 120.286,205.635 118,208.5C 116.923,215.726 115.423,222.726 113.5,229.5C 113.812,218.596 116.145,208.262 120.5,198.5 Z"/></g>
<g><path style="opacity:1" fill="#533630" d="M 207.5,207.5 C 207.704,209.685 208.37,211.685 209.5,213.5C 207.588,210.93 205.421,208.597 203,206.5C 200.174,208.154 197.674,210.154 195.5,212.5C 197.628,205.997 201.628,204.33 207.5,207.5 Z"/></g>
<g><path style="opacity:1" fill="#f15619" d="M 221.5,181.5 C 221.833,195.183 221.499,208.85 220.5,222.5C 218.29,220.247 215.957,218.247 213.5,216.5C 212.25,213.933 211.083,211.267 210,208.5C 209.329,207.748 208.496,207.414 207.5,207.5C 207.426,205.589 206.426,204.422 204.5,204C 202.455,203.51 200.455,203.677 198.5,204.5C 198.328,202.508 198.995,200.842 200.5,199.5C 198.789,197.76 197.956,195.76 198,193.5C 199.243,192.664 200.41,192.997 201.5,194.5C 202.246,195.736 202.579,197.07 202.5,198.5C 204.467,198.261 206.301,198.594 208,199.5C 207.914,201.641 208.081,203.974 208.5,206.5C 210.451,206.773 211.951,206.107 213,204.5C 213.495,206.473 213.662,208.473 213.5,210.5C 215.467,210.739 217.301,210.406 219,209.5C 219.333,200.5 219.667,191.5 220,182.5C 220.383,181.944 220.883,181.611 221.5,181.5 Z"/></g>
<g><path style="opacity:0.529" fill="#ce7455" d="M 294.5,204.5 C 295.884,203.199 297.384,203.199 299,204.5C 301.752,207.737 304.252,211.071 306.5,214.5C 307.946,216.618 308.613,218.951 308.5,221.5C 305.906,217.565 302.906,213.899 299.5,210.5C 299.737,209.209 299.404,208.209 298.5,207.5C 298.306,205.088 296.973,204.088 294.5,204.5 Z"/></g>
<g><path style="opacity:1" fill="#eb5217" d="M 272.5,176.5 C 273.659,178.631 275.492,179.964 278,180.5C 278.5,190.161 278.666,199.828 278.5,209.5C 281.323,210.217 283.99,211.217 286.5,212.5C 284.925,215.582 282.758,218.249 280,220.5C 279.51,221.793 279.343,223.127 279.5,224.5C 278.5,224.5 277.5,224.5 276.5,224.5C 276.667,210.496 276.5,196.496 276,182.5C 275.184,181.177 274.017,180.511 272.5,180.5C 272.5,179.167 272.5,177.833 272.5,176.5 Z"/></g>
<g><path style="opacity:1" fill="#60352f" d="M 294.5,204.5 C 296.973,204.088 298.306,205.088 298.5,207.5C 297.577,206.697 296.577,206.53 295.5,207C 294.361,208.78 293.361,210.614 292.5,212.5C 291.167,213.167 289.833,213.833 288.5,214.5C 289.406,211.926 290.739,209.593 292.5,207.5C 292.932,206.29 293.599,205.29 294.5,204.5 Z"/></g>
<g><path style="opacity:1" fill="#b65433" d="M 207.5,207.5 C 201.628,204.33 197.628,205.997 195.5,212.5C 191.007,218.148 187.007,224.148 183.5,230.5C 182.833,230.5 182.5,230.833 182.5,231.5C 182.167,231.5 181.833,231.5 181.5,231.5C 182.399,228.605 183.733,225.938 185.5,223.5C 185.351,222.448 185.517,221.448 186,220.5C 187.512,219.743 188.846,218.743 190,217.5C 192.845,213.135 195.678,208.802 198.5,204.5C 200.455,203.677 202.455,203.51 204.5,204C 206.426,204.422 207.426,205.589 207.5,207.5 Z"/></g>
<g><path style="opacity:1" fill="#c6613f" d="M 227.5,175.5 C 226.139,177.85 224.806,180.184 223.5,182.5C 223.5,182.833 223.5,183.167 223.5,183.5C 222.669,197.661 222.169,211.994 222,226.5C 221.667,226.833 221.333,227.167 221,227.5C 219.389,223.725 216.889,220.725 213.5,218.5C 213.5,217.833 213.5,217.167 213.5,216.5C 215.957,218.247 218.29,220.247 220.5,222.5C 221.499,208.85 221.833,195.183 221.5,181.5C 223.188,179.146 225.188,177.146 227.5,175.5 Z"/></g>
<g><path style="opacity:1" fill="#1e3b55" d="M 196.5,306.5 C 182.886,307.67 179.053,302.003 185,289.5C 185.5,272.837 185.667,256.17 185.5,239.5C 184.5,239.5 183.5,239.5 182.5,239.5C 182.5,237.833 182.5,236.167 182.5,234.5C 183.234,233.292 183.567,231.959 183.5,230.5C 185.461,228.688 187.794,227.688 190.5,227.5C 191.963,222.444 193.63,217.444 195.5,212.5C 197.674,210.154 200.174,208.154 203,206.5C 205.421,208.597 207.588,210.93 209.5,213.5C 210.833,214.5 212.167,215.5 213.5,216.5C 213.5,217.167 213.5,217.833 213.5,218.5C 214.584,224.251 217.918,227.585 223.5,228.5C 223.5,227.5 223.5,226.5 223.5,225.5C 224.331,211.673 224.831,197.673 225,183.5C 227.676,180.794 229.842,177.794 231.5,174.5C 231.273,172.067 232.273,170.401 234.5,169.5C 235.933,168.047 237.6,167.213 239.5,167C 237.954,171.942 236.621,176.942 235.5,182C 237.089,185.424 237.422,188.924 236.5,192.5C 234.868,191.703 233.368,190.703 232,189.5C 231.5,189.667 231,189.833 230.5,190C 231.653,201.09 231.82,212.257 231,223.5C 229.833,225.333 228.667,227.167 227.5,229C 228.354,230.022 229.354,230.855 230.5,231.5C 231.711,230.726 231.711,229.893 230.5,229C 232.83,223.452 233.997,217.619 234,211.5C 234.333,210.833 234.667,210.167 235,209.5C 236.728,211.852 237.561,214.519 237.5,217.5C 237.223,225.493 234.556,232.493 229.5,238.5C 230.991,239.244 232.491,239.91 234,240.5C 236.023,238.46 237.69,236.127 239,233.5C 239.067,236.047 239.901,238.214 241.5,240C 240.196,240.804 239.529,241.971 239.5,243.5C 242.138,252.498 244.638,261.498 247,270.5C 247.227,276.704 247.727,282.871 248.5,289C 248.241,290.261 247.574,291.261 246.5,292C 247.113,294.147 247.779,296.314 248.5,298.5C 252.386,299.588 252.386,300.421 248.5,301C 252.447,300.593 256.447,300.927 260.5,302C 253.087,303.15 245.587,303.983 238,304.5C 225.452,303.771 213.118,303.105 201,302.5C 198.389,303.071 195.889,303.904 193.5,305C 194.737,305.232 195.737,305.732 196.5,306.5 Z"/></g>
<g><path style="opacity:1" fill="#a64c32" d="M 207.5,207.5 C 208.496,207.414 209.329,207.748 210,208.5C 211.083,211.267 212.25,213.933 213.5,216.5C 212.167,215.5 210.833,214.5 209.5,213.5C 208.37,211.685 207.704,209.685 207.5,207.5 Z"/></g>
<g><path style="opacity:1" fill="#3f333c" d="M 195.5,212.5 C 193.63,217.444 191.963,222.444 190.5,227.5C 187.794,227.688 185.461,228.688 183.5,230.5C 187.007,224.148 191.007,218.148 195.5,212.5 Z"/></g>
<g><path style="opacity:1" fill="#633d39" d="M 223.5,183.5 C 223.5,197.5 223.5,211.5 223.5,225.5C 223.5,226.5 223.5,227.5 223.5,228.5C 217.918,227.585 214.584,224.251 213.5,218.5C 216.889,220.725 219.389,223.725 221,227.5C 221.333,227.167 221.667,226.833 222,226.5C 222.169,211.994 222.669,197.661 223.5,183.5 Z"/></g>
<g><path style="opacity:0.995" fill="#e55321" d="M 380.5,207.5 C 382.574,210.667 384.24,214 385.5,217.5C 385.5,218.167 385.5,218.833 385.5,219.5C 386.444,231.487 386.611,243.487 386,255.5C 385.751,261.064 384.918,266.398 383.5,271.5C 384.173,255.836 384.34,240.169 384,224.5C 383.879,220.958 382.713,217.958 380.5,215.5C 380.5,212.833 380.5,210.167 380.5,207.5 Z"/></g>
<g><path style="opacity:1" fill="#673734" d="M 181.5,231.5 C 181.833,231.5 182.167,231.5 182.5,231.5C 182.217,232.289 181.717,232.956 181,233.5C 180.17,258.337 180.337,283.003 181.5,307.5C 181.5,307.833 181.5,308.167 181.5,308.5C 181.5,308.833 181.5,309.167 181.5,309.5C 180.883,309.389 180.383,309.056 180,308.5C 179.5,283.169 179.333,257.836 179.5,232.5C 180.167,232.167 180.833,231.833 181.5,231.5 Z"/></g>
<g><path style="opacity:1" fill="#ed551c" d="M 130.5,180.5 C 130.403,187.312 127.903,192.979 123,197.5C 122.215,202.381 120.882,207.047 119,211.5C 118.792,220.368 118.292,229.202 117.5,238C 120.919,244.242 120.919,250.576 117.5,257C 119.649,261.603 119.982,266.437 118.5,271.5C 121.336,280.008 123.67,288.675 125.5,297.5C 124.857,295.924 123.857,294.59 122.5,293.5C 122.032,288.911 120.365,284.911 117.5,281.5C 117.5,281.167 117.5,280.833 117.5,280.5C 117.665,277.15 117.498,273.817 117,270.5C 115.247,265.223 114.08,259.89 113.5,254.5C 112.318,246.319 112.318,237.986 113.5,229.5C 115.423,222.726 116.923,215.726 118,208.5C 120.286,205.635 121.12,202.302 120.5,198.5C 123.644,192.409 126.977,186.409 130.5,180.5 Z"/></g>
<g><path style="opacity:1" fill="#dd5b2b" d="M 185.5,223.5 C 183.733,225.938 182.399,228.605 181.5,231.5C 180.833,231.833 180.167,232.167 179.5,232.5C 178.502,257.995 178.169,283.661 178.5,309.5C 177.337,283.67 177.17,257.67 178,231.5C 179.912,229.343 181.579,227.009 183,224.5C 183.671,223.748 184.504,223.414 185.5,223.5 Z"/></g>
<g><path style="opacity:0.213" fill="#6d7a85" d="M 250.5,150.5 C 250.833,150.5 251.167,150.5 251.5,150.5C 252.302,199.512 252.302,248.512 251.5,297.5C 252.791,297.263 253.791,297.596 254.5,298.5C 253.167,298.5 251.833,298.5 250.5,298.5C 250.5,249.167 250.5,199.833 250.5,150.5 Z"/></g>
<g><path style="opacity:1" fill="#a44f34" d="M 179.5,232.5 C 179.333,257.836 179.5,283.169 180,308.5C 180.383,309.056 180.883,309.389 181.5,309.5C 227.167,309.5 272.833,309.5 318.5,309.5C 275.5,310.167 232.5,310.833 189.5,311.5C 186.167,311.5 182.833,311.5 179.5,311.5C 179.672,310.508 179.338,309.842 178.5,309.5C 178.169,283.661 178.502,257.995 179.5,232.5 Z"/></g>
<g><path style="opacity:0.573" fill="#c05427" d="M 308.5,221.5 C 310.593,222.045 312.593,222.878 314.5,224C 315.309,227.13 316.975,229.63 319.5,231.5C 319.5,244.833 319.5,258.167 319.5,271.5C 318.669,258.673 318.169,245.673 318,232.5C 316.159,230.841 314.992,228.841 314.5,226.5C 313.5,226.5 312.5,226.5 311.5,226.5C 310.248,224.999 309.248,223.332 308.5,221.5 Z"/></g>
<g><path style="opacity:0.373" fill="#dc8364" d="M 385.5,219.5 C 390.563,242.949 388.897,265.949 380.5,288.5C 381.116,282.755 382.116,277.089 383.5,271.5C 384.918,266.398 385.751,261.064 386,255.5C 386.611,243.487 386.444,231.487 385.5,219.5 Z"/></g>
<g><path style="opacity:1" fill="#3a303b" d="M 183.5,230.5 C 183.567,231.959 183.234,233.292 182.5,234.5C 181.502,258.661 181.169,282.994 181.5,307.5C 180.337,283.003 180.17,258.337 181,233.5C 181.717,232.956 182.217,232.289 182.5,231.5C 182.5,230.833 182.833,230.5 183.5,230.5 Z"/></g>
<g><path style="opacity:0.671" fill="#db7854" d="M 113.5,254.5 C 114.08,259.89 115.247,265.223 117,270.5C 117.498,273.817 117.665,277.15 117.5,280.5C 114.256,272.253 112.923,263.587 113.5,254.5 Z"/></g>
<g><path style="opacity:0.329" fill="#e78867" d="M 117.5,281.5 C 120.365,284.911 122.032,288.911 122.5,293.5C 122.5,294.167 122.5,294.833 122.5,295.5C 120.319,291.115 118.653,286.448 117.5,281.5 Z"/></g>
<g><path style="opacity:0.09" fill="#be8e7e" d="M 317.5,275.5 C 318.493,284.318 318.827,293.318 318.5,302.5C 318.167,302.5 317.833,302.5 317.5,302.5C 315.265,302.795 313.265,302.461 311.5,301.5C 313.5,301.5 315.5,301.5 317.5,301.5C 317.5,292.833 317.5,284.167 317.5,275.5 Z"/></g>
<g><path style="opacity:0.204" fill="#e49b6f" d="M 380.5,288.5 C 379.737,292.137 378.403,295.47 376.5,298.5C 376.486,294.525 377.819,291.192 380.5,288.5 Z"/></g>
<g><path style="opacity:0.616" fill="#a9593b" d="M 311.5,226.5 C 312.5,226.5 313.5,226.5 314.5,226.5C 314.992,228.841 316.159,230.841 318,232.5C 318.169,245.673 318.669,258.673 319.5,271.5C 319.5,271.833 319.5,272.167 319.5,272.5C 319.829,285.011 319.495,297.345 318.5,309.5C 318.5,307.167 318.5,304.833 318.5,302.5C 318.827,293.318 318.493,284.318 317.5,275.5C 317.667,261.829 317.5,248.163 317,234.5C 314.946,231.953 313.113,229.286 311.5,226.5 Z"/></g>
<g><path style="opacity:1" fill="#f85212" d="M 380.5,215.5 C 382.713,217.958 383.879,220.958 384,224.5C 384.34,240.169 384.173,255.836 383.5,271.5C 382.116,277.089 381.116,282.755 380.5,288.5C 377.819,291.192 376.486,294.525 376.5,298.5C 375.624,298.369 374.957,298.702 374.5,299.5C 372.841,303.487 370.674,307.154 368,310.5C 367.51,311.793 367.343,313.127 367.5,314.5C 366.325,314.281 365.325,314.614 364.5,315.5C 361.791,319.552 359.791,323.885 358.5,328.5C 355.631,330.535 353.297,333.035 351.5,336C 350.207,336.49 348.873,336.657 347.5,336.5C 347.483,338.565 347.15,340.565 346.5,342.5C 344.5,342.5 343.5,343.5 343.5,345.5C 341.236,346.219 338.903,346.552 336.5,346.5C 337.714,345.374 338.714,344.041 339.5,342.5C 338.98,340.528 337.813,340.528 336,342.5C 334.017,340.07 334.183,337.737 336.5,335.5C 337.846,337.013 339.346,338.347 341,339.5C 342.221,338.728 343.221,337.728 344,336.5C 344.333,336.833 344.667,337.167 345,337.5C 346.92,332.083 349.42,326.917 352.5,322C 350.528,318.984 350.195,315.817 351.5,312.5C 354.852,311.095 355.018,309.761 352,308.5C 351.254,304.469 352.754,303.135 356.5,304.5C 355.089,306.017 355.256,307.351 357,308.5C 359.91,307.55 361.077,305.55 360.5,302.5C 359.5,302.5 358.5,302.5 357.5,302.5C 357.215,300.712 357.548,299.045 358.5,297.5C 361.725,298.36 363.892,297.027 365,293.5C 365.333,294.167 365.667,294.833 366,295.5C 367.194,293.377 367.86,291.043 368,288.5C 368.893,289.711 369.726,289.711 370.5,288.5C 369.833,287.833 369.167,287.167 368.5,286.5C 370.971,281.877 372.138,276.877 372,271.5C 373.753,275.508 373.92,279.674 372.5,284C 372.388,285.662 373.054,286.829 374.5,287.5C 376.948,281.712 377.782,275.712 377,269.5C 376.346,270.696 375.846,270.696 375.5,269.5C 375.621,266.998 375.788,264.332 376,261.5C 376.333,262.167 376.667,262.833 377,263.5C 378.756,262.579 378.923,261.412 377.5,260C 378.913,256.278 379.913,252.445 380.5,248.5C 379.128,246.38 379.795,245.38 382.5,245.5C 382.799,243.396 382.466,241.396 381.5,239.5C 380.914,239.709 380.414,240.043 380,240.5C 378.204,238.28 378.037,235.946 379.5,233.5C 377.607,229.336 377.107,225.003 378,220.5C 379.438,219.1 380.271,217.433 380.5,215.5 Z"/></g>
<g><path style="opacity:0.494" fill="#ea8e75" d="M 123.5,298.5 C 125.837,300.507 127.171,303.173 127.5,306.5C 125.657,304.147 124.323,301.48 123.5,298.5 Z"/></g>
<g><path style="opacity:0.994" fill="#e86030" d="M 122.5,293.5 C 123.857,294.59 124.857,295.924 125.5,297.5C 127.134,298.207 128.468,299.373 129.5,301C 128.978,301.561 128.645,302.228 128.5,303C 130.85,306.534 132.517,310.367 133.5,314.5C 134.325,315.386 135.325,315.719 136.5,315.5C 137.01,318.539 137.677,321.539 138.5,324.5C 135.421,321.35 133.087,317.683 131.5,313.5C 131.316,310.663 129.982,308.663 127.5,307.5C 127.5,307.167 127.5,306.833 127.5,306.5C 127.171,303.173 125.837,300.507 123.5,298.5C 122.89,297.609 122.557,296.609 122.5,295.5C 122.5,294.833 122.5,294.167 122.5,293.5 Z"/></g>
<g><path style="opacity:1" fill="#314255" d="M 298.5,207.5 C 299.404,208.209 299.737,209.209 299.5,210.5C 299.5,240.5 299.5,270.5 299.5,300.5C 303.6,300.237 307.6,300.57 311.5,301.5C 313.265,302.461 315.265,302.795 317.5,302.5C 317.5,304.5 317.5,306.5 317.5,308.5C 272.167,308.5 226.833,308.5 181.5,308.5C 181.5,308.167 181.5,307.833 181.5,307.5C 181.169,282.994 181.502,258.661 182.5,234.5C 182.5,236.167 182.5,237.833 182.5,239.5C 183.5,239.5 184.5,239.5 185.5,239.5C 185.667,256.17 185.5,272.837 185,289.5C 179.053,302.003 182.886,307.67 196.5,306.5C 213.776,306.009 231.61,306.009 250,306.5C 262.5,306.167 275,305.833 287.5,305.5C 289.766,304.686 292.1,304.186 294.5,304C 295.227,302.601 295.727,301.101 296,299.5C 296.198,272.985 296.698,246.485 297.5,220C 297.192,216.536 295.525,214.036 292.5,212.5C 293.361,210.614 294.361,208.78 295.5,207C 296.577,206.53 297.577,206.697 298.5,207.5 Z"/></g>
<g><path style="opacity:1" fill="#442d2f" d="M 317.5,302.5 C 317.833,302.5 318.167,302.5 318.5,302.5C 318.5,304.833 318.5,307.167 318.5,309.5C 272.833,309.5 227.167,309.5 181.5,309.5C 181.5,309.167 181.5,308.833 181.5,308.5C 226.833,308.5 272.167,308.5 317.5,308.5C 317.5,306.5 317.5,304.5 317.5,302.5 Z"/></g>
<g><path style="opacity:0.165" fill="#ee8f74" d="M 127.5,307.5 C 129.982,308.663 131.316,310.663 131.5,313.5C 129.684,311.882 128.351,309.882 127.5,307.5 Z"/></g>
<g><path style="opacity:1" fill="#c95c33" d="M 319.5,272.5 C 320.83,285.235 320.83,298.069 319.5,311C 276.168,311.5 232.835,311.667 189.5,311.5C 232.5,310.833 275.5,310.167 318.5,309.5C 319.495,297.345 319.829,285.011 319.5,272.5 Z"/></g>
<g><path style="opacity:1" fill="#e55821" d="M 319.5,231.5 C 320.314,233.631 320.814,235.964 321,238.5C 321.086,261.039 321.919,283.539 323.5,306C 323.297,308.406 322.297,310.406 320.5,312C 273.332,312.832 226.332,312.665 179.5,311.5C 182.833,311.5 186.167,311.5 189.5,311.5C 232.835,311.667 276.168,311.5 319.5,311C 320.83,298.069 320.83,285.235 319.5,272.5C 319.5,272.167 319.5,271.833 319.5,271.5C 319.5,258.167 319.5,244.833 319.5,231.5 Z"/></g>
<g><path style="opacity:0.612" fill="#e37148" d="M 376.5,298.5 C 372.019,309.47 366.019,319.47 358.5,328.5C 359.791,323.885 361.791,319.552 364.5,315.5C 365.325,314.614 366.325,314.281 367.5,314.5C 367.343,313.127 367.51,311.793 368,310.5C 370.674,307.154 372.841,303.487 374.5,299.5C 374.957,298.702 375.624,298.369 376.5,298.5 Z"/></g>
<g><path style="opacity:0.31" fill="#e47f59" d="M 143.5,331.5 C 144.822,331.33 145.989,331.663 147,332.5C 149.407,335.728 151.574,339.061 153.5,342.5C 149.456,339.457 146.123,335.791 143.5,331.5 Z"/></g>
<g><path style="opacity:0.929" fill="#ec7f57" d="M 358.5,328.5 C 355.535,334.126 351.535,338.793 346.5,342.5C 347.15,340.565 347.483,338.565 347.5,336.5C 348.873,336.657 350.207,336.49 351.5,336C 353.297,333.035 355.631,330.535 358.5,328.5 Z"/></g>
<g><path style="opacity:0.243" fill="#eb936c" d="M 153.5,342.5 C 154.167,342.5 154.833,342.5 155.5,342.5C 158.5,345.833 161.5,349.167 164.5,352.5C 160.229,349.899 156.563,346.566 153.5,342.5 Z"/></g>
<g><path style="opacity:0.039" fill="#e99c86" d="M 346.5,342.5 C 346.144,344.19 345.144,345.19 343.5,345.5C 343.5,343.5 344.5,342.5 346.5,342.5 Z"/></g>
<g><path style="opacity:0.992" fill="#eb734a" d="M 343.5,345.5 C 339.461,350.688 334.461,354.688 328.5,357.5C 328.75,356.078 329.583,355.078 331,354.5C 331.49,353.207 331.657,351.873 331.5,350.5C 332.833,350.5 334.167,350.5 335.5,350.5C 335.433,349.041 335.766,347.708 336.5,346.5C 338.903,346.552 341.236,346.219 343.5,345.5 Z"/></g>
<g><path style="opacity:0.918" fill="#e57951" d="M 164.5,352.5 C 168.917,352.908 171.917,355.241 173.5,359.5C 169.949,357.889 166.949,355.556 164.5,352.5 Z"/></g>
<g><path style="opacity:0.82" fill="#e68556" d="M 328.5,357.5 C 326.049,360.277 323.049,362.277 319.5,363.5C 320.234,362.292 320.567,360.959 320.5,359.5C 323.308,359.307 325.975,358.64 328.5,357.5 Z"/></g>
<g><path style="opacity:0.494" fill="#e28567" d="M 173.5,359.5 C 178.496,360.17 182.496,362.504 185.5,366.5C 180.835,365.172 176.835,362.839 173.5,359.5 Z"/></g>
<g><path style="opacity:0.576" fill="#e18b64" d="M 187.5,367.5 C 188.873,367.343 190.207,367.51 191.5,368C 193.596,368.737 195.263,369.903 196.5,371.5C 192.835,371.498 189.835,370.165 187.5,367.5 Z"/></g>
<g><path style="opacity:0.463" fill="#e57349" d="M 319.5,363.5 C 314.753,367.207 309.419,369.874 303.5,371.5C 304.897,369.621 306.563,367.954 308.5,366.5C 309.833,366.5 311.167,366.5 312.5,366.5C 312.5,365.5 312.5,364.5 312.5,363.5C 314.833,363.5 317.167,363.5 319.5,363.5 Z"/></g>
<g><path style="opacity:0.063" fill="#e78362" d="M 303.5,371.5 C 300.311,373.89 296.644,375.223 292.5,375.5C 295.968,373.713 299.635,372.38 303.5,371.5 Z"/></g>
<g><path style="opacity:1" fill="#f85212" d="M 308.5,366.5 C 306.563,367.954 304.897,369.621 303.5,371.5C 299.635,372.38 295.968,373.713 292.5,375.5C 288.818,375.335 285.152,375.501 281.5,376C 279.944,376.72 278.944,377.887 278.5,379.5C 257.623,382.869 236.956,382.036 216.5,377C 212.116,376.194 208.116,374.528 204.5,372C 201.854,371.503 199.187,371.336 196.5,371.5C 195.263,369.903 193.596,368.737 191.5,368C 190.207,367.51 188.873,367.343 187.5,367.5C 186.508,367.672 185.842,367.338 185.5,366.5C 182.496,362.504 178.496,360.17 173.5,359.5C 171.917,355.241 168.917,352.908 164.5,352.5C 161.5,349.167 158.5,345.833 155.5,342.5C 158.72,345.396 162.387,347.229 166.5,348C 167.022,347.439 167.355,346.772 167.5,346C 166.66,344.829 165.827,343.662 165,342.5C 164.667,342.833 164.333,343.167 164,343.5C 158.142,340.757 158.309,338.924 164.5,338C 165.223,340.72 166.723,342.887 169,344.5C 169.495,346.473 169.662,348.473 169.5,350.5C 171.5,350.167 173.5,349.833 175.5,349.5C 175.5,350.833 175.5,352.167 175.5,353.5C 179.712,351.51 183.378,352.177 186.5,355.5C 188.098,354.515 189.765,354.349 191.5,355C 192.402,358.153 191.069,360.153 187.5,361C 188.641,361.741 188.641,362.575 187.5,363.5C 191.194,364.901 195.027,365.567 199,365.5C 201.625,365.419 203.959,364.752 206,363.5C 207.188,364.563 207.688,365.897 207.5,367.5C 211.182,367.335 214.848,367.501 218.5,368C 215.722,369.392 212.722,369.892 209.5,369.5C 209.5,370.5 209.5,371.5 209.5,372.5C 214.983,373.315 220.316,372.648 225.5,370.5C 227.353,371.189 228.519,372.522 229,374.5C 231.669,373.351 234.669,372.018 238,370.5C 251.47,370.963 264.803,371.963 278,373.5C 281.2,373.344 284.367,373.011 287.5,372.5C 287.5,371.5 287.5,370.5 287.5,369.5C 289.5,369.5 291.5,369.5 293.5,369.5C 293.281,370.675 293.614,371.675 294.5,372.5C 296.711,371.877 298.711,370.877 300.5,369.5C 297.833,368.167 295.167,366.833 292.5,365.5C 293.559,364.304 294.893,363.637 296.5,363.5C 299.398,364.607 302.232,365.94 305,367.5C 306.138,367.011 307.305,366.678 308.5,366.5 Z"/></g>
<g><path style="opacity:0.878" fill="#e76a3f" d="M 292.5,375.5 C 288.249,377.888 283.583,379.221 278.5,379.5C 278.944,377.887 279.944,376.72 281.5,376C 285.152,375.501 288.818,375.335 292.5,375.5 Z"/></g>
<g><path style="opacity:0.294" fill="#d96a41" d="M 196.5,371.5 C 199.187,371.336 201.854,371.503 204.5,372C 208.116,374.528 212.116,376.194 216.5,377C 236.956,382.036 257.623,382.869 278.5,379.5C 256.187,385.026 233.854,384.526 211.5,378C 206.193,376.295 201.193,374.129 196.5,371.5 Z"/></g>
</svg>
